<svg width="76" height="76" viewBox="0 0 76 76" fill="none" xmlns="http://www.w3.org/2000/svg">
<mask id="mask0_816_660" style="mask-type:alpha" maskUnits="userSpaceOnUse" x="0" y="0" width="76" height="76">
<rect width="76" height="76" rx="38" fill="white"/>
</mask>
<g mask="url(#mask0_816_660)">
<rect x="-14" y="-16" width="124" height="138" fill="white"/>
<path d="M58.7456 67.8239C54.1851 62.9332 49.7139 60.2212 45.4332 59.7287C50.5831 56.8951 52.0596 51.5697 52.6609 49.4083C52.7503 49.0896 52.8276 48.8114 52.8812 48.6666C52.8931 48.626 52.911 48.6028 52.917 48.5796C53.036 48.597 53.2384 48.6608 53.3873 48.7013C53.5838 48.7593 53.81 48.8288 54.0601 48.881C53.5599 50.3296 52.5597 53.6674 53.554 55.0466C53.8636 55.4696 54.3339 55.7072 54.8876 55.7072C55.4413 55.7072 55.9116 55.4754 56.2212 55.0466C57.2333 53.65 56.1855 50.2138 55.6914 48.8114C56.1379 48.6608 56.6082 48.3768 57.0845 47.8843C58.5074 46.4124 59.4243 43.4339 59.2695 40.8031C59.1683 39.0589 58.6086 37.7261 57.6561 36.938C56.6975 36.15 55.8045 36.1036 55.221 36.2137C55.0067 36.2543 54.7983 36.318 54.6018 36.3991C55.614 32.5862 56.7273 25.5398 53.0658 20.3304C51.3511 17.8908 48.7911 16.1697 45.4332 15.1731C45.5106 14.7384 45.5583 14.298 45.5583 13.8403C45.5583 9.5174 41.9444 6 37.503 6C33.0616 6 29.4477 9.5174 29.4477 13.8403C29.4477 14.2923 29.4953 14.7327 29.5727 15.1615C26.203 16.1582 23.631 17.8792 21.9104 20.3246C18.2489 25.534 19.3622 32.5804 20.3743 36.3933C20.1779 36.3122 19.9755 36.2485 19.7552 36.2079C19.1777 36.1036 18.2787 36.1442 17.3201 36.9322C16.3675 37.7203 15.8079 39.0589 15.7067 40.7973C15.5519 43.4281 16.4747 46.4066 17.8917 47.8785C18.368 48.371 18.8383 48.655 19.2848 48.8056C18.7907 50.208 17.7428 53.6442 18.755 55.0408C19.0645 55.4638 19.5349 55.7014 20.0886 55.7014C20.6423 55.7014 21.1126 55.4696 21.4222 55.0408C22.4164 53.6674 21.4222 50.3239 20.9161 48.8752C21.1662 48.823 21.3924 48.7535 21.5889 48.6955C21.7377 48.6492 21.9402 48.5854 22.0592 48.5738C22.0711 48.597 22.083 48.6202 22.095 48.6608C22.1485 48.8056 22.2259 49.0838 22.3152 49.4025C22.9166 51.5639 24.3931 56.8893 29.543 59.7171C25.2682 60.2097 20.7971 62.9216 16.2306 67.8123C12.5334 71.8107 10.1936 75.7337 10.0984 75.9018C9.89594 76.2495 10.015 76.6899 10.3722 76.8927C10.4913 76.9564 10.6163 76.9912 10.7414 76.9912C10.9974 76.9912 11.2474 76.8637 11.3843 76.6319C11.4439 76.5276 15.7186 69.4233 21.6603 64.8628C23.2023 66.3579 28.3522 70.588 37.3303 70.588H37.6697C46.6418 70.588 51.7917 66.3637 53.3337 64.8686C59.2754 69.4349 63.5502 76.5334 63.6097 76.6377C63.8121 76.9854 64.2705 77.1013 64.6278 76.9043C64.985 76.7072 65.1041 76.261 64.9016 75.9134C64.8064 75.7453 62.4606 71.8281 58.7456 67.8413V67.8239ZM55.0067 54.2179C55.0067 54.2179 54.9769 54.2643 54.8876 54.2643C54.7983 54.2643 54.7923 54.2469 54.7685 54.2179C54.4947 53.8413 54.5959 52.6939 54.8876 51.3959C55.1793 52.6997 55.2746 53.847 55.0067 54.2179ZM20.2255 54.2179C20.2255 54.2179 20.1957 54.2643 20.1064 54.2643C20.0171 54.2643 20.0112 54.2469 19.9874 54.2179C19.7135 53.8413 19.8147 52.6939 20.1064 51.3959C20.3982 52.6997 20.4934 53.847 20.2255 54.2179ZM23.7739 49.0374C23.6727 48.6666 23.5893 48.3768 23.5119 48.1682C23.2023 47.357 22.6546 47.1426 22.1366 47.1426C21.7675 47.1426 21.4103 47.2527 21.1662 47.328C20.4101 47.5598 19.8088 47.7394 18.9931 46.8934C17.8619 45.7228 17.082 43.0862 17.207 40.89C17.2844 39.5746 17.6714 38.5606 18.2965 38.0448C18.7133 37.7029 19.1062 37.5697 19.4932 37.6392C20.3327 37.7899 21.0769 38.8097 21.2912 39.1864C21.3031 39.2038 21.315 39.2154 21.3269 39.227C21.3567 39.2733 21.3865 39.3081 21.4281 39.3486C21.452 39.366 21.4698 39.3892 21.4936 39.4066C21.5413 39.4414 21.5889 39.4645 21.6365 39.4877C21.6603 39.4993 21.6782 39.5109 21.702 39.5167C21.7735 39.5399 21.8449 39.5515 21.9163 39.5573C21.9223 39.5573 21.9282 39.5573 21.9402 39.5573C21.9878 39.5573 22.0295 39.5573 22.0771 39.5457C22.095 39.5457 22.1128 39.5283 22.1366 39.5225C22.1545 39.5225 22.1783 39.5225 22.1962 39.5109C22.22 39.5051 22.2378 39.4877 22.2557 39.4761C22.2974 39.4587 22.3331 39.4356 22.3748 39.4124C22.4105 39.3892 22.4403 39.366 22.47 39.3371C22.4998 39.3081 22.5296 39.2733 22.5534 39.2385C22.5772 39.2038 22.5951 39.169 22.6129 39.1342C22.6308 39.0937 22.6427 39.0589 22.6546 39.0183C22.6665 38.9778 22.6725 38.9372 22.6784 38.8967C22.6784 38.8735 22.6903 38.8561 22.6903 38.8387C22.6903 30.2451 30.2276 25.111 37.5149 25.111C46.3679 25.111 52.3156 32.2095 52.3156 38.8387C52.3156 38.8619 52.3275 38.8793 52.3275 38.9025C52.3275 38.943 52.3395 38.9836 52.3514 39.0241C52.3633 39.0647 52.3752 39.1053 52.399 39.1458C52.4168 39.1806 52.4347 39.2096 52.4585 39.2443C52.4823 39.2849 52.5121 39.3197 52.5478 39.3486C52.5716 39.3718 52.6014 39.395 52.6312 39.4182C52.6729 39.4472 52.7145 39.4703 52.7622 39.4935C52.78 39.4993 52.7979 39.5167 52.8157 39.5225C52.8336 39.5283 52.8515 39.5225 52.8693 39.5283C52.8931 39.5341 52.911 39.5457 52.9348 39.5515C52.9646 39.5515 52.9884 39.5515 53.0182 39.5515C53.0539 39.5515 53.0956 39.5515 53.1313 39.5515C53.1789 39.5515 53.2265 39.5399 53.2682 39.5283C53.3039 39.5167 53.3397 39.5051 53.3754 39.4935C53.4171 39.4761 53.4528 39.4529 53.4885 39.4298C53.5242 39.4066 53.554 39.3834 53.5838 39.3544C53.6195 39.3255 53.6433 39.2907 53.6671 39.2501C53.685 39.227 53.7028 39.2154 53.7147 39.1922C53.9291 38.8097 54.6792 37.7899 55.5127 37.645C55.8997 37.5755 56.2927 37.7087 56.7094 38.0506C57.3346 38.5664 57.7215 39.5804 57.7989 40.8958C57.924 43.092 57.144 45.7286 56.0128 46.8992C55.1972 47.7452 54.5959 47.5598 53.8398 47.3338C53.2504 47.1541 52.0239 46.7833 51.494 48.174C51.4166 48.3826 51.3333 48.6724 51.2321 49.0432C50.3926 52.0739 48.16 60.1285 37.5089 60.1285C26.8579 60.1285 24.6252 52.0739 23.7858 49.0432L23.7739 49.0374ZM37.6697 69.1277H37.3303C29.2691 69.1277 24.4407 65.4133 22.8749 63.9704C25.167 62.4174 27.6616 61.3049 30.2395 61.1194V63.2577C30.2395 63.6575 30.5729 63.982 30.9837 63.982C31.3945 63.982 31.7279 63.6575 31.7279 63.2577V60.6732C33.3533 61.2295 35.2585 61.5656 37.503 61.5656C39.7475 61.5656 41.6527 61.2353 43.278 60.6732V63.2577C43.278 63.6575 43.6114 63.982 44.0222 63.982C44.433 63.982 44.7664 63.6575 44.7664 63.2577V61.1194C47.3384 61.3049 49.8389 62.4117 52.1311 63.9704C50.5712 65.4133 45.7666 69.1219 37.6756 69.1219L37.6697 69.1277ZM32.4483 33.722C32.3828 34.0407 31.5612 34.1392 30.6087 34.1855C29.6561 34.2203 28.8345 34.1855 28.7392 33.8726C28.644 33.5713 29.4417 33.073 30.561 33.0266C31.6803 32.9802 32.5198 33.4148 32.4483 33.722ZM42.5517 33.722C42.4802 33.4148 43.3197 32.9802 44.439 33.0266C45.5583 33.073 46.356 33.5713 46.2608 33.8726C46.1655 34.1855 45.3439 34.2203 44.3913 34.1855C43.4388 34.145 42.6231 34.0407 42.5517 33.722ZM32.4483 39.3023C32.4483 40.1425 31.7518 40.8205 30.8885 40.8205C30.0252 40.8205 29.3286 40.1425 29.3286 39.3023C29.3286 38.4621 30.0252 37.7841 30.8885 37.7841C31.7518 37.7841 32.4483 38.4621 32.4483 39.3023ZM42.5517 39.3023C42.5517 38.4621 43.2482 37.7841 44.1115 37.7841C44.9748 37.7841 45.6714 38.4621 45.6714 39.3023C45.6714 40.1425 44.9748 40.8205 44.1115 40.8205C43.2482 40.8205 42.5517 40.1425 42.5517 39.3023ZM36.4492 46.9629C36.2527 46.7369 36.2349 46.5225 36.342 46.4008C36.5742 46.1748 37.0624 46.2502 37.5208 46.2444C37.9733 46.2675 38.4675 46.2096 38.6877 46.453C38.789 46.5747 38.7592 46.7949 38.5568 47.0093C38.3543 47.2237 37.9614 47.4149 37.4911 47.4033C37.0207 47.3917 36.6397 47.1831 36.4492 46.9629ZM37.503 52.1202C36.6218 52.0912 35.9134 51.7494 35.4787 51.448C35.0441 51.1351 34.8596 50.8454 34.9429 50.7121C35.1215 50.4108 36.2646 50.9033 37.5447 50.9613C38.8187 51.0366 39.8547 50.4398 40.0749 50.7121C40.1702 50.8338 40.0214 51.1525 39.5868 51.4944C39.164 51.8363 38.3841 52.1608 37.497 52.1202H37.503Z" fill="black"/>
</g>
</svg>
