<svg width="76" height="76" viewBox="0 0 76 76" fill="none" xmlns="http://www.w3.org/2000/svg">
<mask id="mask0_816_660" style="mask-type:alpha" maskUnits="userSpaceOnUse" x="0" y="0" width="76" height="76">
<rect width="76" height="76" rx="38" fill="white"/>
</mask>
<g mask="url(#mask0_816_660)">
<rect x="-14" y="-16" width="124" height="138" fill="white"/>
<path d="M57.3142 69.4701C53.1683 64.9238 49.1035 62.4029 45.212 61.945C49.8938 59.3109 51.236 54.3606 51.7827 52.3514C51.8639 52.0551 51.9342 51.7965 51.9829 51.6619C51.9938 51.6242 52.01 51.6026 52.0154 51.5811C52.1237 51.5972 52.3077 51.6565 52.443 51.6942C52.6216 51.7481 52.8273 51.8127 53.0546 51.8612C52.6 53.2078 51.6907 56.3106 52.5945 57.5926C52.876 57.9858 53.3036 58.2067 53.8069 58.2067C54.3103 58.2067 54.7379 57.9912 55.0193 57.5926C55.9394 56.2944 54.9868 53.1001 54.5376 51.7965C54.9435 51.6565 55.3711 51.3925 55.8041 50.9347C57.0977 49.5665 57.9312 46.7977 57.7904 44.3522C57.6984 42.7308 57.1897 41.4919 56.3237 40.7593C55.4523 40.0267 54.6404 39.9836 54.11 40.086C53.9152 40.1237 53.7257 40.1829 53.5471 40.2583C54.4672 36.7139 55.4793 30.1638 52.1507 25.3212C50.592 23.0534 48.2646 21.4536 45.212 20.5271C45.2824 20.1231 45.3257 19.7137 45.3257 19.2881C45.3257 15.2697 42.0404 12 38.0027 12C33.9651 12 30.6797 15.2697 30.6797 19.2881C30.6797 19.7083 30.723 20.1177 30.7934 20.5163C27.73 21.4428 25.3918 23.0426 23.8276 25.3158C20.499 30.1584 21.5111 36.7085 22.4312 40.253C22.2526 40.1775 22.0686 40.1183 21.8683 40.0806C21.3433 39.9836 20.5261 40.0213 19.6547 40.7539C18.7887 41.4865 18.2799 42.7308 18.1879 44.3468C18.0472 46.7923 18.8861 49.5611 20.1743 50.9293C20.6072 51.3872 21.0348 51.6511 21.4408 51.7912C20.9915 53.0947 20.0389 56.289 20.9591 57.5872C21.2405 57.9804 21.6681 58.2013 22.1714 58.2013C22.6748 58.2013 23.1024 57.9858 23.3838 57.5872C24.2877 56.3106 23.3838 53.2025 22.9238 51.8558C23.1511 51.8073 23.3567 51.7427 23.5354 51.6888C23.6707 51.6457 23.8547 51.5865 23.9629 51.5757C23.9738 51.5972 23.9846 51.6188 23.9954 51.6565C24.0441 51.7912 24.1145 52.0497 24.1957 52.346C24.7423 54.3552 26.0846 59.3055 30.7663 61.9342C26.8802 62.3921 22.8155 64.913 18.6642 69.4594C15.3031 73.1761 13.176 76.8229 13.0894 76.9791C12.9054 77.3023 13.0136 77.7117 13.3384 77.9002C13.4466 77.9595 13.5603 77.9918 13.674 77.9918C13.9067 77.9918 14.134 77.8733 14.2585 77.6578C14.3126 77.5609 18.1987 70.9568 23.6003 66.7176C25.0021 68.1073 29.6838 72.0396 37.8457 72.0396H38.1543C46.3107 72.0396 50.9925 68.1127 52.3943 66.7229C57.7959 70.9676 61.682 77.5663 61.7361 77.6632C61.9201 77.9864 62.3369 78.0942 62.6616 77.911C62.9864 77.7279 63.0946 77.3131 62.9106 76.9899C62.824 76.8337 60.6915 73.1923 57.3142 69.4863V69.4701ZM53.9152 56.8223C53.9152 56.8223 53.8881 56.8654 53.8069 56.8654C53.7257 56.8654 53.7203 56.8492 53.6987 56.8223C53.4497 56.4722 53.5417 55.4056 53.8069 54.199C54.0721 55.411 54.1587 56.4775 53.9152 56.8223ZM22.2959 56.8223C22.2959 56.8223 22.2689 56.8654 22.1877 56.8654C22.1065 56.8654 22.1011 56.8492 22.0794 56.8223C21.8304 56.4722 21.9225 55.4056 22.1877 54.199C22.4529 55.411 22.5395 56.4775 22.2959 56.8223ZM25.5217 52.0066C25.4297 51.6619 25.3539 51.3925 25.2836 51.1986C25.0021 50.4445 24.5042 50.2452 24.0333 50.2452C23.6977 50.2452 23.373 50.3475 23.1511 50.4176C22.4637 50.633 21.917 50.8 21.1755 50.0136C20.1472 48.9255 19.4382 46.4745 19.5518 44.433C19.6222 43.2102 19.974 42.2676 20.5423 41.7882C20.9212 41.4703 21.2784 41.3464 21.6302 41.4111C22.3933 41.5511 23.0699 42.4992 23.2647 42.8493C23.2756 42.8655 23.2864 42.8763 23.2972 42.887C23.3243 42.9301 23.3513 42.9624 23.3892 43.0001C23.4109 43.0163 23.4271 43.0379 23.4488 43.054C23.4921 43.0863 23.5354 43.1079 23.5787 43.1294C23.6003 43.1402 23.6165 43.151 23.6382 43.1564C23.7031 43.1779 23.7681 43.1887 23.833 43.1941C23.8385 43.1941 23.8439 43.1941 23.8547 43.1941C23.898 43.1941 23.9359 43.1941 23.9792 43.1833C23.9954 43.1833 24.0116 43.1671 24.0333 43.1617C24.0495 43.1617 24.0712 43.1617 24.0874 43.151C24.1091 43.1456 24.1253 43.1294 24.1415 43.1187C24.1794 43.1025 24.2119 43.0809 24.2498 43.0594C24.2823 43.0379 24.3093 43.0163 24.3364 42.9894C24.3635 42.9624 24.3905 42.9301 24.4122 42.8978C24.4338 42.8655 24.4501 42.8332 24.4663 42.8008C24.4825 42.7631 24.4934 42.7308 24.5042 42.6931C24.515 42.6554 24.5204 42.6177 24.5258 42.58C24.5258 42.5584 24.5366 42.5423 24.5366 42.5261C24.5366 34.5377 31.3888 29.7652 38.0135 29.7652C46.0618 29.7652 51.4688 36.3638 51.4688 42.5261C51.4688 42.5477 51.4796 42.5638 51.4796 42.5854C51.4796 42.6231 51.4904 42.6608 51.5012 42.6985C51.5121 42.7362 51.5229 42.7739 51.5445 42.8116C51.5608 42.8439 51.577 42.8709 51.5987 42.9032C51.6203 42.9409 51.6474 42.9732 51.6798 43.0001C51.7015 43.0217 51.7286 43.0432 51.7556 43.0648C51.7935 43.0917 51.8314 43.1133 51.8747 43.1348C51.8909 43.1402 51.9072 43.1564 51.9234 43.1617C51.9396 43.1671 51.9559 43.1617 51.9721 43.1671C51.9938 43.1725 52.01 43.1833 52.0317 43.1887C52.0587 43.1887 52.0804 43.1887 52.1074 43.1887C52.1399 43.1887 52.1778 43.1887 52.2103 43.1887C52.2536 43.1887 52.2969 43.1779 52.3347 43.1671C52.3672 43.1564 52.3997 43.1456 52.4322 43.1348C52.4701 43.1187 52.5025 43.0971 52.535 43.0756C52.5675 43.054 52.5945 43.0325 52.6216 43.0055C52.6541 42.9786 52.6757 42.9463 52.6974 42.9086C52.7136 42.887 52.7299 42.8763 52.7407 42.8547C52.9355 42.4992 53.6175 41.5511 54.3752 41.4165C54.727 41.3518 55.0842 41.4757 55.4631 41.7935C56.0314 42.273 56.3832 43.2156 56.4536 44.4384C56.5672 46.4799 55.8582 48.9308 54.8299 50.019C54.0884 50.8054 53.5417 50.633 52.8543 50.4229C52.3185 50.256 51.2036 49.9112 50.7218 51.204C50.6515 51.3979 50.5757 51.6673 50.4837 52.012C49.7206 54.8292 47.6909 62.3167 38.0081 62.3167C28.3253 62.3167 26.2957 54.8292 25.5325 52.012L25.5217 52.0066ZM38.1543 70.6821H37.8457C30.5174 70.6821 26.1279 67.2293 24.7044 65.888C26.7882 64.4444 29.056 63.4102 31.3996 63.2378V65.2255C31.3996 65.5971 31.7027 65.8988 32.0761 65.8988C32.4496 65.8988 32.7527 65.5971 32.7527 65.2255V62.823C34.2303 63.3401 35.9622 63.6526 38.0027 63.6526C40.0432 63.6526 41.7752 63.3455 43.2527 62.823V65.2255C43.2527 65.5971 43.5558 65.8988 43.9293 65.8988C44.3027 65.8988 44.6058 65.5971 44.6058 65.2255V63.2378C46.944 63.4102 49.2172 64.439 51.301 65.888C49.8829 67.2293 45.5151 70.6767 38.1597 70.6767L38.1543 70.6821ZM33.4076 37.7697C33.348 38.066 32.6011 38.1576 31.7351 38.2006C30.8692 38.233 30.1222 38.2006 30.0356 37.9098C29.9491 37.6297 30.6743 37.1664 31.6918 37.1233C32.7094 37.0802 33.4725 37.4842 33.4076 37.7697ZM42.5924 37.7697C42.5275 37.4842 43.2906 37.0802 44.3082 37.1233C45.3257 37.1664 46.0509 37.6297 45.9643 37.9098C45.8778 38.2006 45.1308 38.233 44.2649 38.2006C43.3989 38.1629 42.6574 38.066 42.5924 37.7697ZM33.4076 42.9571C33.4076 43.7381 32.7743 44.3684 31.9895 44.3684C31.2047 44.3684 30.5715 43.7381 30.5715 42.9571C30.5715 42.176 31.2047 41.5458 31.9895 41.5458C32.7743 41.5458 33.4076 42.176 33.4076 42.9571ZM42.5924 42.9571C42.5924 42.176 43.2257 41.5458 44.0105 41.5458C44.7953 41.5458 45.4285 42.176 45.4285 42.9571C45.4285 43.7381 44.7953 44.3684 44.0105 44.3684C43.2257 44.3684 42.5924 43.7381 42.5924 42.9571ZM37.0447 50.0782C36.8661 49.8681 36.8499 49.6688 36.9473 49.5557C37.1584 49.3456 37.6022 49.4156 38.0189 49.4103C38.4303 49.4318 38.8795 49.3779 39.0798 49.6042C39.1718 49.7173 39.1447 49.922 38.9607 50.1213C38.7767 50.3206 38.4195 50.4984 37.9919 50.4876C37.5643 50.4768 37.2179 50.2829 37.0447 50.0782ZM38.0027 54.8723C37.2017 54.8454 36.5576 54.5276 36.1625 54.2475C35.7674 53.9566 35.5996 53.6873 35.6754 53.5634C35.8377 53.2833 36.8769 53.7411 38.0406 53.795C39.1988 53.865 40.1406 53.3102 40.3409 53.5634C40.4275 53.6765 40.2922 53.9727 39.897 54.2906C39.5128 54.6084 38.8037 54.91 37.9973 54.8723H38.0027Z" fill="black"/>
</g>
</svg>
