<svg width="76" height="76" viewBox="0 0 76 76" fill="none" xmlns="http://www.w3.org/2000/svg">
<mask id="mask0_816_647" style="mask-type:alpha" maskUnits="userSpaceOnUse" x="0" y="0" width="76" height="76">
<rect width="76" height="76" rx="38" fill="white"/>
</mask>
<g mask="url(#mask0_816_647)">
<rect x="-14" y="-16" width="124" height="138" fill="white"/>
<path d="M64.9606 77.1393C64.9493 77.0949 64.9381 77.0505 64.9156 77.0061C64.9099 76.995 64.9099 76.9783 64.9043 76.9672C64.8142 76.8117 62.5964 73.0526 59.084 69.2323C54.7722 64.5459 50.5449 61.9472 46.4977 61.4753C51.3667 58.76 52.7627 53.6571 53.3312 51.5915C53.4157 51.2861 53.4889 51.0196 53.5395 50.8808C53.5508 50.8419 53.5677 50.8197 53.5733 50.7975C53.6802 50.8142 53.8772 50.8752 54.018 50.9141C54.8116 51.1584 56.1457 51.5693 57.5192 50.1256C58.8645 48.7153 59.7313 45.8612 59.585 43.3403C59.4893 41.6689 58.9602 40.3918 58.0595 39.6366C57.6374 39.2813 57.2321 39.0925 56.8606 38.9925C58.2791 38.143 59.2304 36.6104 59.2304 34.8558C59.2304 33.1012 58.3522 31.6852 57.0294 30.819C57.6261 29.9639 57.9807 28.9367 57.9807 27.8206C57.9807 25.1386 55.9374 22.9176 53.3031 22.59C53.3256 22.3845 53.3369 22.1735 53.3369 21.9625C53.3369 18.6642 50.6181 15.9823 47.2745 15.9823C46.1319 15.9823 45.0624 16.3044 44.1448 16.8485C43.0753 15.1438 41.1671 14 38.9944 14C36.8216 14 34.9078 15.1438 33.8439 16.8485C32.932 16.3044 31.8625 15.9823 30.7142 15.9823C27.3706 15.9823 24.6519 18.6642 24.6519 21.9625C24.6519 22.1735 24.6631 22.3845 24.6856 22.59C22.0513 22.9176 20.008 25.1331 20.008 27.8206C20.008 28.9367 20.3626 29.9695 20.9593 30.819C19.6309 31.6852 18.7584 33.1733 18.7584 34.8558C18.7584 36.5383 19.7097 38.143 21.1282 38.9925C20.7567 39.0925 20.3514 39.2868 19.9292 39.6366C19.0286 40.3918 18.4995 41.6745 18.4038 43.3403C18.2574 45.8612 19.1299 48.7153 20.4696 50.1256C21.843 51.5693 23.1715 51.1584 23.9708 50.9141C24.1115 50.8697 24.3085 50.8086 24.4155 50.7975C24.4267 50.8197 24.438 50.8419 24.4492 50.8808C24.4999 51.0196 24.5731 51.2861 24.6575 51.5915C25.226 53.6627 26.622 58.7656 31.491 61.4753C27.4495 61.9472 23.2221 64.5459 18.9047 69.2323C15.3979 73.0526 13.1801 76.8117 13.0901 76.9672C13.0844 76.9783 13.0844 76.995 13.0788 77.0061C13.0563 77.0505 13.045 77.0949 13.0338 77.1393C13.0225 77.1838 13.0113 77.2282 13.0056 77.2726C13.0056 77.2893 13 77.3004 13 77.3115C13 77.3392 13.0113 77.367 13.0169 77.3948C13.0225 77.4447 13.0281 77.4892 13.045 77.5336C13.0619 77.5724 13.0788 77.6113 13.1013 77.6502C13.1238 77.689 13.1464 77.7224 13.1745 77.7557C13.2083 77.789 13.242 77.8223 13.2814 77.8501C13.304 77.8667 13.3208 77.8945 13.349 77.9056C13.3659 77.9167 13.3828 77.9167 13.3997 77.9278C13.4165 77.9389 13.4391 77.9445 13.4559 77.95C13.5347 77.9778 13.6136 78 13.698 78H64.2964C64.2964 78 64.3245 77.9944 64.3414 77.9889C64.3865 77.9889 64.4315 77.9722 64.4765 77.9611C64.5215 77.95 64.5666 77.9389 64.6116 77.9167C64.6229 77.9112 64.6397 77.9112 64.651 77.9056C64.6792 77.8889 64.6904 77.8667 64.7186 77.8501C64.758 77.8223 64.7974 77.789 64.8255 77.7557C64.8537 77.7224 64.8762 77.6835 64.8987 77.6502C64.9212 77.6113 64.9437 77.5724 64.955 77.5336C64.9719 77.4892 64.9775 77.4447 64.9831 77.3948C64.9831 77.367 65 77.3392 65 77.3115C65 77.2948 64.9944 77.2837 64.9944 77.2726C64.9944 77.2282 64.9775 77.1838 64.9662 77.1393H64.9606ZM56.8324 68.9269H45.8729C46.5596 68.2051 47.1338 67.3778 47.5616 66.4671H54.0686C55.0424 67.2334 55.9656 68.0663 56.8324 68.9269ZM52.121 65.079H48.0851C48.2483 64.5126 48.3609 63.9184 48.4116 63.3132C49.6893 63.7185 50.9333 64.3238 52.1267 65.079H52.121ZM26.0197 51.2306C25.924 50.8752 25.8452 50.5976 25.772 50.3977C25.4793 49.6203 24.9615 49.4149 24.4717 49.4149C24.1228 49.4149 23.785 49.5204 23.5542 49.5926C22.8337 49.8147 22.2708 49.9868 21.4997 49.1761C20.4302 48.0545 19.6928 45.528 19.811 43.4236C19.8842 42.1631 20.2501 41.1914 20.8411 40.6972C21.2126 40.3863 21.5672 40.2585 21.9162 40.303C21.9162 40.3529 21.8993 40.3974 21.8993 40.4473C21.8993 41.8022 23.0195 42.9072 24.3929 42.9072C25.7664 42.9072 26.8866 41.8022 26.8866 40.4473C26.8866 39.8643 26.6727 39.3368 26.3293 38.9148C27.6746 38.0486 28.5696 36.5549 28.5696 34.8558C28.5696 33.9785 28.3276 33.1567 27.911 32.4459C29.5322 31.5686 30.641 29.8806 30.6861 27.9427C30.6861 27.9427 30.6973 27.9427 30.703 27.9427C32.8814 27.9427 34.7896 26.7989 35.8534 25.0942C36.7653 25.6384 37.8348 25.9604 38.9831 25.9604C40.1314 25.9604 41.1953 25.6384 42.1128 25.0942C43.1823 26.7989 45.0905 27.9427 47.2633 27.9427C47.2633 27.9427 47.2745 27.9427 47.2802 27.9427C47.3252 29.8862 48.4341 31.5686 50.0552 32.4459C49.6387 33.1567 49.3966 33.9785 49.3966 34.8558C49.3966 36.5549 50.2916 38.0541 51.6369 38.9148C51.2936 39.3368 51.0797 39.8643 51.0797 40.4473C51.0797 41.8022 52.1998 42.9072 53.5733 42.9072C54.9467 42.9072 56.0669 41.8022 56.0669 40.4473C56.0669 40.3974 56.0556 40.3529 56.05 40.303C56.399 40.2585 56.7536 40.3807 57.1251 40.6972C57.7162 41.1914 58.0821 42.1631 58.1552 43.4236C58.2734 45.528 57.5361 48.0545 56.4666 49.1761C55.6954 49.9868 55.1269 49.8091 54.412 49.5926C53.8547 49.4204 52.6952 49.0651 52.1942 50.3977C52.121 50.5976 52.0422 50.8752 51.9465 51.2306C51.1528 54.1347 49.042 61.8529 38.9719 61.8529C28.9017 61.8529 26.7909 54.1347 25.9972 51.2306H26.0197ZM44.4375 62.3915C44.2743 65.2178 41.8989 67.4666 38.9944 67.4666C36.0898 67.4666 33.7144 65.2178 33.5512 62.3915C35.0823 62.9245 36.8835 63.2355 38.9944 63.2355C41.1052 63.2355 42.9065 62.919 44.4375 62.3915ZM32.1721 62.8079C32.538 66.2006 35.4594 68.8548 39 68.8548C42.5406 68.8548 45.4564 66.2006 45.8279 62.8079C46.2275 62.8357 46.6272 62.8801 47.0268 62.9578C46.8073 67.1445 43.3005 70.4817 39 70.4817C34.6995 70.4817 31.1927 67.139 30.9732 62.9578C31.3728 62.8857 31.7725 62.8357 32.1721 62.8135V62.8079ZM29.5828 63.3132C29.6335 63.9184 29.746 64.5126 29.9093 65.079H25.8677C27.0611 64.3238 28.305 63.7185 29.5828 63.3132ZM23.9201 66.4671H30.4328C30.8606 67.3778 31.4347 68.2051 32.1215 68.9269H21.1563C22.0175 68.0663 22.9463 67.2334 23.9201 66.4671ZM19.8335 70.3096H33.7764C35.2737 71.2924 37.0637 71.8643 38.9944 71.8643C40.9251 71.8643 42.7151 71.2868 44.2124 70.3096H58.1609C58.9208 71.148 59.6244 71.9809 60.2492 72.7694H17.7396C18.3644 71.9809 19.068 71.1425 19.8279 70.3096H19.8335ZM14.9645 76.6229C15.3698 76.0066 15.9496 75.1459 16.6757 74.1631H61.3131C62.0448 75.1515 62.6246 76.0066 63.0299 76.6229H14.9645ZM34.221 36.5549C34.1591 36.8603 33.3823 36.9547 32.4817 36.9991C31.5811 37.0324 30.8043 36.9991 30.7142 36.6993C30.6242 36.4105 31.3784 35.933 32.4367 35.8886C33.4949 35.8442 34.2886 36.2606 34.221 36.5549ZM43.7733 36.5549C43.7058 36.2606 44.4995 35.8442 45.5577 35.8886C46.6159 35.933 47.3702 36.4105 47.2802 36.6993C47.1901 36.9991 46.4133 37.0324 45.5127 36.9991C44.612 36.9603 43.8409 36.8603 43.7733 36.5549ZM34.221 41.9021C34.221 42.7073 33.5625 43.3569 32.7463 43.3569C31.9301 43.3569 31.2715 42.7073 31.2715 41.9021C31.2715 41.097 31.9301 40.4473 32.7463 40.4473C33.5625 40.4473 34.221 41.097 34.221 41.9021ZM43.7733 41.9021C43.7733 41.097 44.4319 40.4473 45.2481 40.4473C46.0643 40.4473 46.7229 41.097 46.7229 41.9021C46.7229 42.7073 46.0643 43.3569 45.2481 43.3569C44.4319 43.3569 43.7733 42.7073 43.7733 41.9021ZM37.9136 49.1706C37.7279 48.954 37.711 48.7486 37.8123 48.632C38.0318 48.4154 38.4934 48.4876 38.9268 48.482C39.3546 48.5042 39.8218 48.4487 40.0301 48.6819C40.1258 48.7985 40.0976 49.0095 39.9063 49.215C39.7149 49.4204 39.3434 49.6037 38.8987 49.5926C38.454 49.5815 38.0937 49.3816 37.9136 49.1706ZM40.8913 53.5128C40.4917 53.8404 39.7543 54.1513 38.9156 54.1124C38.0825 54.0847 37.4126 53.7571 37.0017 53.4683C36.5908 53.1685 36.4163 52.8909 36.4951 52.7631C36.664 52.4744 37.7448 52.9464 38.955 53.0019C40.1596 53.0741 41.139 52.5022 41.3473 52.7631C41.4373 52.8798 41.2966 53.1851 40.8857 53.5128H40.8913Z" fill="black"/>
</g>
</svg>
