<svg width="76" height="76" viewBox="0 0 76 76" fill="none" xmlns="http://www.w3.org/2000/svg">
<mask id="mask0_816_647" style="mask-type:alpha" maskUnits="userSpaceOnUse" x="0" y="0" width="76" height="76">
<rect width="76" height="76" rx="38" fill="white"/>
</mask>
<g mask="url(#mask0_816_647)">
<rect x="-14" y="-16" width="124" height="138" fill="white"/>
<path d="M65.9568 77.0586C65.9445 77.0101 65.9321 76.9615 65.9074 76.9129C65.9013 76.9007 65.9013 76.8825 65.8951 76.8704C65.7964 76.7003 63.3653 72.5888 59.5152 68.4104C54.7888 63.2846 50.155 60.4423 45.7187 59.9261C51.0559 56.9563 52.5861 51.375 53.2092 49.1157C53.3018 48.7817 53.382 48.4902 53.4375 48.3384C53.4499 48.2959 53.4684 48.2716 53.4746 48.2473C53.5918 48.2655 53.8077 48.3323 53.962 48.3748C54.832 48.642 56.2943 49.0914 57.7998 47.5124C59.2745 45.9698 60.2247 42.8482 60.0643 40.0909C59.9594 38.2629 59.3794 36.866 58.3922 36.0401C57.9294 35.6514 57.4852 35.4449 57.0779 35.3356C58.6328 34.4064 59.6756 32.7302 59.6756 30.811C59.6756 28.8919 58.713 27.3432 57.263 26.3958C57.9171 25.4605 58.3058 24.337 58.3058 23.1163C58.3058 20.1829 56.066 17.7536 53.1784 17.3953C53.2031 17.1706 53.2154 16.9398 53.2154 16.709C53.2154 13.1015 50.2352 10.1681 46.5701 10.1681C45.3176 10.1681 44.1453 10.5204 43.1395 11.1156C41.9672 9.25108 39.8755 8 37.4938 8C35.1121 8 33.0143 9.25108 31.8481 11.1156C30.8486 10.5204 29.6762 10.1681 28.4175 10.1681C24.7524 10.1681 21.7722 13.1015 21.7722 16.709C21.7722 16.9398 21.7846 17.1706 21.8093 17.3953C18.9216 17.7536 16.6819 20.1768 16.6819 23.1163C16.6819 24.337 17.0706 25.4666 17.7246 26.3958C16.2685 27.3432 15.3121 28.9708 15.3121 30.811C15.3121 32.6512 16.3548 34.4064 17.9097 35.3356C17.5025 35.4449 17.0582 35.6575 16.5955 36.0401C15.6082 36.866 15.0283 38.269 14.9234 40.0909C14.7629 42.8482 15.7193 45.9698 17.1878 47.5124C18.6933 49.0914 20.1495 48.642 21.0257 48.3748C21.1799 48.3262 21.3959 48.2594 21.5131 48.2473C21.5254 48.2716 21.5378 48.2959 21.5501 48.3384C21.6057 48.4902 21.6859 48.7817 21.7784 49.1157C22.4016 51.3811 23.9318 56.9623 29.269 59.9261C24.8388 60.4423 20.205 63.2846 15.4725 68.4104C11.6285 72.5888 9.19745 76.7003 9.09872 76.8704C9.09255 76.8825 9.09255 76.9007 9.08638 76.9129C9.0617 76.9615 9.04936 77.0101 9.03702 77.0586C9.02468 77.1072 9.01234 77.1558 9.00617 77.2044C9.00617 77.2226 9 77.2348 9 77.2469C9 77.2773 9.01234 77.3077 9.01851 77.338C9.02468 77.3927 9.03085 77.4413 9.04936 77.4899C9.06787 77.5324 9.08638 77.5749 9.11106 77.6174C9.13574 77.6599 9.16042 77.6963 9.19128 77.7328C9.2283 77.7692 9.26532 77.8057 9.30851 77.836C9.33319 77.8542 9.3517 77.8846 9.38255 77.8968C9.40106 77.9089 9.41957 77.9089 9.43808 77.9211C9.45659 77.9332 9.48127 77.9393 9.49978 77.9453C9.58617 77.9757 9.67255 78 9.7651 78H65.2287C65.2287 78 65.2596 77.9939 65.2781 77.9879C65.3275 77.9879 65.3768 77.9696 65.4262 77.9575C65.4755 77.9453 65.5249 77.9332 65.5743 77.9089C65.5866 77.9028 65.6051 77.9028 65.6174 77.8968C65.6483 77.8785 65.6606 77.8542 65.6915 77.836C65.7347 77.8057 65.7779 77.7692 65.8087 77.7328C65.8396 77.6963 65.8643 77.6538 65.8889 77.6174C65.9136 77.5749 65.9383 77.5324 65.9506 77.4899C65.9691 77.4413 65.9753 77.3927 65.9815 77.338C65.9815 77.3077 66 77.2773 66 77.2469C66 77.2287 65.9938 77.2166 65.9938 77.2044C65.9938 77.1558 65.9753 77.1072 65.963 77.0586H65.9568ZM57.0471 68.0764H45.0338C45.7865 67.2868 46.4159 66.3819 46.8848 65.3859H54.0175C55.085 66.224 56.0969 67.135 57.0471 68.0764ZM51.8827 63.8676H47.4587C47.6376 63.2481 47.761 62.5983 47.8165 61.9363C49.2171 62.3797 50.5808 63.0416 51.8888 63.8676H51.8827ZM23.2716 48.721C23.1667 48.3323 23.0803 48.0286 23.0001 47.81C22.6793 46.9597 22.1116 46.735 21.5748 46.735C21.1922 46.735 20.822 46.8504 20.5691 46.9294C19.7793 47.1723 19.1623 47.3606 18.317 46.4739C17.1446 45.2471 16.3363 42.4838 16.4659 40.182C16.5461 38.8034 16.9472 37.7406 17.595 37.2001C18.0023 36.86 18.391 36.7203 18.7735 36.7689C18.7735 36.8235 18.755 36.8721 18.755 36.9268C18.755 38.4086 19.9829 39.6172 21.4884 39.6172C22.9939 39.6172 24.2218 38.4086 24.2218 36.9268C24.2218 36.2891 23.9873 35.7121 23.611 35.2506C25.0856 34.3031 26.0667 32.6694 26.0667 30.811C26.0667 29.8515 25.8014 28.9526 25.3448 28.1753C27.1218 27.2157 28.3373 25.3694 28.3867 23.2499C28.3867 23.2499 28.399 23.2499 28.4052 23.2499C30.793 23.2499 32.8847 21.9988 34.0509 20.1343C35.0504 20.7295 36.2228 21.0817 37.4815 21.0817C38.7402 21.0817 39.9064 20.7295 40.9121 20.1343C42.0844 21.9988 44.1761 23.2499 46.5578 23.2499C46.5578 23.2499 46.5701 23.2499 46.5763 23.2499C46.6257 25.3755 47.8412 27.2157 49.6182 28.1753C49.1616 28.9526 48.8963 29.8515 48.8963 30.811C48.8963 32.6694 49.8774 34.3092 51.352 35.2506C50.9756 35.7121 50.7412 36.2891 50.7412 36.9268C50.7412 38.4086 51.969 39.6172 53.4746 39.6172C54.9801 39.6172 56.2079 38.4086 56.2079 36.9268C56.2079 36.8721 56.1956 36.8235 56.1894 36.7689C56.572 36.7203 56.9607 36.8539 57.3679 37.2001C58.0158 37.7406 58.4169 38.8034 58.4971 40.182C58.6267 42.4838 57.8184 45.2471 56.646 46.4739C55.8007 47.3606 55.1775 47.1662 54.3939 46.9294C53.7831 46.7411 52.512 46.3524 51.9629 47.81C51.8827 48.0286 51.7963 48.3323 51.6914 48.721C50.8214 51.8973 48.5076 60.3391 37.4692 60.3391C26.4307 60.3391 24.1169 51.8973 23.2469 48.721H23.2716ZM43.4604 60.9282C43.2814 64.0194 40.6776 66.4791 37.4938 66.4791C34.31 66.4791 31.7062 64.0194 31.5273 60.9282C33.2056 61.5112 35.18 61.8513 37.4938 61.8513C39.8076 61.8513 41.7821 61.5051 43.4604 60.9282ZM30.0156 61.3837C30.4166 65.0944 33.619 67.9974 37.5 67.9974C41.381 67.9974 44.5772 65.0944 44.9844 61.3837C45.4225 61.414 45.8606 61.4626 46.2987 61.5476C46.058 66.1268 42.214 69.7769 37.5 69.7769C32.786 69.7769 28.942 66.1208 28.7013 61.5476C29.1394 61.4687 29.5775 61.414 30.0156 61.3897V61.3837ZM27.1773 61.9363C27.2328 62.5983 27.3562 63.2481 27.5352 63.8676H23.105C24.4131 63.0416 25.7767 62.3797 27.1773 61.9363ZM20.9701 65.3859H28.109C28.5779 66.3819 29.2073 67.2868 29.9601 68.0764H17.9406C18.8846 67.135 19.9027 66.224 20.9701 65.3859ZM16.4906 69.5886H31.7741C33.4153 70.6635 35.3775 71.2891 37.4938 71.2891C39.6102 71.2891 41.5723 70.6575 43.2136 69.5886H58.5032C59.3362 70.5056 60.1075 71.4166 60.7924 72.279H14.1953C14.8802 71.4166 15.6514 70.4996 16.4844 69.5886H16.4906ZM11.1534 76.4938C11.5976 75.8197 12.2332 74.8784 13.0291 73.8034H61.9585C62.7607 74.8844 63.3962 75.8197 63.8404 76.4938H11.1534ZM32.2615 32.6694C32.1937 33.0035 31.3422 33.1067 30.3549 33.1553C29.3677 33.1917 28.5162 33.1553 28.4175 32.8273C28.3188 32.5115 29.1456 31.9892 30.3056 31.9407C31.4656 31.8921 32.3356 32.3476 32.2615 32.6694ZM42.7323 32.6694C42.6583 32.3476 43.5283 31.8921 44.6882 31.9407C45.8482 31.9892 46.675 32.5115 46.5763 32.8273C46.4776 33.1553 45.6261 33.1917 44.6389 33.1553C43.6517 33.1128 42.8063 33.0035 42.7323 32.6694ZM32.2615 38.518C32.2615 39.3986 31.5396 40.1091 30.6449 40.1091C29.7503 40.1091 29.0284 39.3986 29.0284 38.518C29.0284 37.6373 29.7503 36.9268 30.6449 36.9268C31.5396 36.9268 32.2615 37.6373 32.2615 38.518ZM42.7323 38.518C42.7323 37.6373 43.4542 36.9268 44.3489 36.9268C45.2436 36.9268 45.9655 37.6373 45.9655 38.518C45.9655 39.3986 45.2436 40.1091 44.3489 40.1091C43.4542 40.1091 42.7323 39.3986 42.7323 38.518ZM36.3092 46.4678C36.1055 46.231 36.087 46.0062 36.1981 45.8787C36.4387 45.6419 36.9447 45.7208 37.4198 45.7147C37.8887 45.739 38.4008 45.6783 38.6291 45.9334C38.734 46.0609 38.7032 46.2917 38.4934 46.5164C38.2836 46.7411 37.8764 46.9415 37.3889 46.9294C36.9015 46.9172 36.5066 46.6986 36.3092 46.4678ZM39.5732 51.2171C39.1351 51.5754 38.3268 51.9155 37.4074 51.873C36.4943 51.8426 35.76 51.4843 35.3096 51.1685C34.8592 50.8405 34.6679 50.5369 34.7543 50.3972C34.9394 50.0814 36.1241 50.5976 37.4506 50.6583C38.7711 50.7373 39.8447 50.1118 40.073 50.3972C40.1717 50.5247 40.0174 50.8588 39.567 51.2171H39.5732Z" fill="black"/>
</g>
</svg>
