<svg width="76" height="76" viewBox="0 0 76 76" fill="none" xmlns="http://www.w3.org/2000/svg">
<mask id="mask0_816_641" style="mask-type:alpha" maskUnits="userSpaceOnUse" x="0" y="0" width="76" height="76">
<rect width="76" height="76" rx="38" fill="white"/>
</mask>
<g mask="url(#mask0_816_641)">
<rect x="-14" y="-16" width="124" height="138" fill="white"/>
<path d="M57.2203 67.3322C52.9898 62.705 48.8422 60.1393 44.8714 59.6733C49.6486 56.9923 51.0182 51.954 51.576 49.9145C51.6589 49.6129 51.7307 49.3498 51.7804 49.2127C51.7914 49.1744 51.808 49.1524 51.8135 49.1305C51.9184 49.1469 52.1117 49.2072 52.2498 49.2456C53.0285 49.4869 54.3374 49.8926 55.685 48.4671C57.0049 47.0746 57.8554 44.2566 57.7118 41.7676C57.6179 40.1173 57.0988 38.8564 56.2152 38.1108C55.326 37.3651 54.4976 37.3268 53.9563 37.4255C53.9453 37.4255 53.9398 37.4255 53.9342 37.4309C54.8731 34.8706 55.2763 32.2336 55.083 29.7007C54.735 25.068 52.2774 20.7478 48.6766 18.4233C45.3298 16.2577 40.9005 15.5395 35.5047 16.2851C32.909 16.6415 30.8932 17.2116 29.1646 18.0779C27.2537 19.0373 25.6355 20.6546 24.5973 22.6283C23.1006 22.2829 21.6702 23.2423 20.9522 24.3059C20.1128 25.5559 19.9195 27.1294 19.8477 28.363C19.6709 31.307 20.157 34.3608 21.3002 37.4858C21.2228 37.4638 21.14 37.4419 21.0572 37.4255C20.5159 37.3268 19.6875 37.3651 18.7983 38.1108C17.9147 38.8564 17.3956 40.1228 17.3017 41.7676C17.1581 44.2566 18.0141 47.0746 19.3285 48.4671C20.6761 49.8926 21.985 49.4869 22.7637 49.2456C22.9018 49.2018 23.0951 49.1415 23.2 49.1305C23.211 49.1524 23.2221 49.1744 23.2331 49.2127C23.2828 49.3498 23.3546 49.6129 23.4375 49.9145C23.9953 51.9594 25.3649 56.9978 30.1421 59.6733C26.1768 60.1393 22.0292 62.705 17.7932 67.3322C14.358 71.1042 12.1821 74.8158 12.0937 74.9693C11.9004 75.2982 12.0164 75.7149 12.3477 75.9068C12.6791 76.0932 13.0988 75.9835 13.2921 75.6546C13.375 75.5121 21.5432 61.6634 30.7772 60.989V75.3092C30.7772 75.6875 31.0865 75.9945 31.4676 75.9945C31.8487 75.9945 32.1579 75.6875 32.1579 75.3092V69.6732L34.6929 68.4287L35.698 70.3257L34.9856 75.216C34.958 75.4134 35.0187 75.6107 35.1458 75.7643C35.2783 75.9123 35.4661 76 35.6649 76H39.3431C39.5419 76 39.7352 75.9123 39.8622 75.7643C39.9948 75.6162 40.05 75.4134 40.0224 75.216L39.3099 70.3257L40.3151 68.4287L42.85 69.6732V75.3092C42.85 75.6875 43.1593 75.9945 43.5404 75.9945C43.9215 75.9945 44.2307 75.6875 44.2307 75.3092V60.989C53.4648 61.6634 61.633 75.5121 61.7158 75.6546C61.8429 75.8739 62.0748 75.9945 62.3123 75.9945C62.4283 75.9945 62.5498 75.9671 62.6547 75.9013C62.9861 75.7094 63.0965 75.2928 62.9088 74.9638C62.8204 74.8103 60.6444 71.0987 57.1982 67.3268L57.2203 67.3322ZM24.7795 49.5581C24.6856 49.2072 24.6083 48.9331 24.5365 48.7358C24.2493 47.9682 23.7412 47.7654 23.2608 47.7654C22.9183 47.7654 22.587 47.8695 22.3605 47.9408C21.6591 48.1601 21.1013 48.3301 20.3447 47.5296C19.2954 46.4222 18.5664 43.9276 18.6879 41.8498C18.7597 40.6053 19.1187 39.6458 19.6986 39.1579C20.0852 38.8344 20.4441 38.7083 20.8086 38.7741C21.5818 38.9167 22.2777 39.8816 22.4765 40.238C22.6919 40.682 22.9128 41.1261 23.1503 41.5702C23.1779 41.6195 23.2276 41.6469 23.2828 41.6415C23.3381 41.6415 23.3823 41.6031 23.4043 41.5537C24.415 38.8016 24.9452 36.329 24.9783 34.2127C27.3807 32.7105 29.1425 29.8652 29.4297 27.0581C34.9525 31.1809 42.2591 33.0834 49.0576 32.1623C48.7318 35.4518 49.3006 38.7741 50.7034 41.7785C50.8139 42.0143 50.9022 42.0801 51.0127 42.1733C51.0624 42.2171 51.1232 42.261 51.2005 42.3432C51.2281 42.3706 51.2612 42.3871 51.2999 42.3871C51.2999 42.3871 51.3054 42.3871 51.3109 42.3871C51.3551 42.3871 51.3882 42.3597 51.4159 42.3268C52.0123 41.4496 52.5425 40.5395 53.0009 39.6184C53.3157 39.2511 53.752 38.8673 54.2159 38.7796C54.5749 38.7138 54.9394 38.8399 55.326 39.1634C55.9059 39.6513 56.2649 40.6108 56.3367 41.8553C56.4526 43.9331 55.7291 46.4276 54.6798 47.5351C53.9232 48.3355 53.3709 48.1601 52.664 47.9463C52.1173 47.7763 50.9796 47.4255 50.488 48.7412C50.4162 48.9386 50.3389 49.2127 50.245 49.5636C49.4663 52.4309 47.3953 60.0515 37.515 60.0515C27.6348 60.0515 25.5637 52.4309 24.785 49.5636L24.7795 49.5581ZM37.5095 65.5888C34.6598 65.5888 32.3291 63.3629 32.169 60.5779C33.6712 61.1042 35.4385 61.4112 37.5095 61.4112C39.5806 61.4112 41.3478 61.0987 42.85 60.5779C42.6899 63.3684 40.3593 65.5888 37.5095 65.5888ZM32.1524 64.3114C32.9532 65.3531 34.0467 66.1535 35.317 66.5866L32.1524 68.1436V64.3114ZM39.7076 66.5921C40.9778 66.159 42.0713 65.3586 42.8721 64.3169V68.1491L39.7076 66.5921ZM32.8262 35.068C32.7654 35.3695 32.0033 35.4627 31.1197 35.5066C30.236 35.5395 29.4739 35.5066 29.3855 35.2105C29.2971 34.9255 30.0372 34.454 31.0755 34.4101C32.1138 34.3662 32.8925 34.7774 32.8262 35.068ZM42.1983 35.068C42.1321 34.7774 42.9108 34.3662 43.9491 34.4101C44.9874 34.454 45.7274 34.9255 45.639 35.2105C45.5507 35.5066 44.7885 35.5395 43.9049 35.5066C43.0212 35.4682 42.2646 35.3695 42.1983 35.068ZM32.8262 40.3476C32.8262 41.1426 32.18 41.784 31.3792 41.784C30.5784 41.784 29.9323 41.1426 29.9323 40.3476C29.9323 39.5526 30.5784 38.9112 31.3792 38.9112C32.18 38.9112 32.8262 39.5526 32.8262 40.3476ZM45.0923 40.3476C45.0923 41.1426 44.4461 41.784 43.6453 41.784C42.8445 41.784 42.1983 41.1426 42.1983 40.3476C42.1983 39.5526 42.8445 38.9112 43.6453 38.9112C44.4461 38.9112 45.0923 39.5526 45.0923 40.3476ZM28.2312 63.7796L25.1164 67.5461L28.8222 70.989C29.0541 71.2029 29.1094 71.5482 28.9547 71.8224L26.8008 75.6491C26.6738 75.8739 26.4419 76 26.1989 76C26.0829 76 25.9669 75.9726 25.862 75.9123C25.5306 75.7259 25.4091 75.3092 25.5969 74.9803L27.4857 71.6195L23.7026 68.1053C23.4375 67.8586 23.4099 67.4474 23.6418 67.1678L27.1654 62.9079C27.4084 62.6173 27.8447 62.5735 28.1374 62.8147C28.4301 63.0559 28.4743 63.489 28.2312 63.7796ZM46.2024 70.9836L49.9081 67.5406L46.7933 63.7741C46.5503 63.4836 46.5945 63.0504 46.8872 62.8092C47.1799 62.568 47.6162 62.6118 47.8592 62.9024L51.3827 67.1623C51.6147 67.4419 51.5871 67.8531 51.322 68.0998L47.5389 71.614L49.4277 74.9748C49.6154 75.3037 49.4939 75.7204 49.1626 75.9068C49.0576 75.9671 48.9417 75.9945 48.8257 75.9945C48.5827 75.9945 48.3507 75.8684 48.2237 75.6436L46.0698 71.8169C45.9152 71.5428 45.9704 71.1974 46.2024 70.9836ZM36.3663 47.5241C36.184 47.3103 36.1675 47.1075 36.2669 46.9923C36.4823 46.7785 36.9351 46.8498 37.3604 46.8443C37.7801 46.8662 38.2385 46.8114 38.4429 47.0417C38.5368 47.1568 38.5091 47.3651 38.3214 47.568C38.1336 47.7708 37.7691 47.9518 37.3328 47.9408C36.8965 47.9298 36.543 47.7325 36.3663 47.5241ZM39.2823 51.8114C38.8902 52.1349 38.1667 52.4419 37.3438 52.4035C36.5265 52.3761 35.8692 52.0526 35.4661 51.7676C35.0629 51.4715 34.8917 51.1974 34.969 51.0713C35.1347 50.7862 36.1951 51.2522 37.3825 51.307C38.5644 51.3783 39.5253 50.8136 39.7297 51.0713C39.818 51.1864 39.68 51.4879 39.2768 51.8114H39.2823Z" fill="black"/>
</g>
</svg>
