<svg width="76" height="76" viewBox="0 0 76 76" fill="none" xmlns="http://www.w3.org/2000/svg">
<mask id="mask0_816_641" style="mask-type:alpha" maskUnits="userSpaceOnUse" x="0" y="0" width="76" height="76">
<rect width="76" height="76" rx="38" fill="white"/>
</mask>
<g mask="url(#mask0_816_641)">
<rect x="-14" y="-16" width="124" height="138" fill="white"/>
<path d="M60.427 66.1765C55.6159 60.9324 50.899 58.0245 46.3831 57.4964C51.816 54.458 53.3737 48.7478 54.008 46.4364C54.1022 46.0947 54.1839 45.7964 54.2404 45.6411C54.253 45.5976 54.2718 45.5727 54.2781 45.5479C54.3974 45.5665 54.6173 45.6349 54.7743 45.6784C55.6599 45.9518 57.1484 46.4116 58.6809 44.7961C60.1821 43.2178 61.1493 40.0241 60.986 37.2032C60.8792 35.333 60.2888 33.9039 59.2839 33.0589C58.2727 32.2138 57.3306 32.1703 56.7151 32.2822C56.7025 32.2822 56.6962 32.2822 56.6899 32.2884C57.7577 29.3867 58.2162 26.398 57.9963 23.5274C57.6006 18.2771 54.8057 13.3809 50.7106 10.7464C46.9044 8.29206 41.8672 7.4781 35.7309 8.32313C32.7789 8.727 30.4864 9.3732 28.5205 10.3549C26.3474 11.4423 24.5071 13.2752 23.3263 15.5121C21.6242 15.1206 19.9975 16.208 19.181 17.4134C18.2263 18.8301 18.0065 20.6133 17.9248 22.0114C17.7238 25.348 18.2765 28.8089 19.5767 32.3505C19.4887 32.3257 19.3945 32.3008 19.3003 32.2822C18.6848 32.1703 17.7427 32.2138 16.7315 33.0589C15.7265 33.9039 15.1361 35.3392 15.0294 37.2032C14.8661 40.0241 15.8396 43.2178 17.3344 44.7961C18.8669 46.4116 20.3555 45.9518 21.2411 45.6784C21.3981 45.6287 21.6179 45.5603 21.7373 45.5479C21.7498 45.5727 21.7624 45.5976 21.7749 45.6411C21.8315 45.7964 21.9131 46.0947 22.0073 46.4364C22.6417 48.754 24.1993 54.4642 29.6322 57.4964C25.1226 58.0245 20.4057 60.9324 15.5883 66.1765C11.6817 70.4514 9.20705 74.6579 9.10656 74.8319C8.88673 75.2047 9.01863 75.6769 9.39548 75.8944C9.77232 76.1056 10.2497 75.9814 10.4695 75.6085C10.5637 75.447 19.853 59.7518 30.3545 58.9876V75.2171C30.3545 75.6458 30.7062 75.9938 31.1396 75.9938C31.573 75.9938 31.9247 75.6458 31.9247 75.2171V68.8297L34.8076 67.4192L35.9507 69.5691L35.1405 75.1115C35.1091 75.3352 35.1782 75.5588 35.3226 75.7328C35.4734 75.9006 35.6869 76 35.913 76H40.096C40.3222 76 40.542 75.9006 40.6864 75.7328C40.8372 75.5651 40.9 75.3352 40.8686 75.1115L40.0584 69.5691L41.2015 67.4192L44.0844 68.8297V75.2171C44.0844 75.6458 44.4361 75.9938 44.8695 75.9938C45.3028 75.9938 45.6546 75.6458 45.6546 75.2171V58.9876C56.1561 59.7518 65.4454 75.447 65.5396 75.6085C65.684 75.8571 65.9478 75.9938 66.2179 75.9938C66.3498 75.9938 66.488 75.9627 66.6073 75.8882C66.9842 75.6707 67.1098 75.1985 66.8962 74.8257C66.7957 74.6517 64.3211 70.4452 60.4019 66.1703L60.427 66.1765ZM23.5336 46.0325C23.4268 45.6349 23.3389 45.3242 23.2572 45.1005C22.9306 44.2306 22.3528 44.0007 21.8063 44.0007C21.4169 44.0007 21.0401 44.1188 20.7826 44.1996C19.9849 44.4481 19.3505 44.6407 18.4901 43.7336C17.2967 42.4784 16.4677 39.6513 16.6058 37.2964C16.6875 35.886 17.0957 34.7986 17.7552 34.2456C18.1949 33.879 18.6031 33.7361 19.0177 33.8107C19.897 33.9722 20.6884 35.0658 20.9145 35.4697C21.1594 35.973 21.4107 36.4763 21.6807 36.9795C21.7121 37.0355 21.7687 37.0665 21.8315 37.0603C21.8943 37.0603 21.9445 37.0168 21.9696 36.9609C23.119 33.8418 23.722 31.0395 23.7597 28.6411C26.4918 26.9386 28.4954 23.7138 28.822 20.5326C35.1028 25.2051 43.4123 27.3611 51.144 26.3173C50.7734 30.0453 51.4203 33.8107 53.0157 37.2157C53.1413 37.4828 53.2418 37.5574 53.3674 37.663C53.4239 37.7127 53.493 37.7624 53.5809 37.8556C53.6123 37.8867 53.65 37.9054 53.694 37.9054C53.694 37.9054 53.7003 37.9054 53.7065 37.9054C53.7568 37.9054 53.7945 37.8743 53.8259 37.837C54.5042 36.8429 55.1072 35.8114 55.6285 34.7676C55.9865 34.3513 56.4827 33.9163 57.0102 33.8169C57.4185 33.7423 57.833 33.8853 58.2727 34.2518C58.9322 34.8048 59.3404 35.8922 59.4221 37.3026C59.554 39.6575 58.7312 42.4847 57.5378 43.7398C56.6774 44.6469 56.0493 44.4481 55.2453 44.2058C54.6235 44.0132 53.3297 43.6155 52.7707 45.1067C52.6891 45.3304 52.6011 45.6411 52.4943 46.0388C51.6088 49.2884 49.2535 57.9251 38.0171 57.9251C26.7807 57.9251 24.4254 49.2884 23.5398 46.0388L23.5336 46.0325ZM38.0108 64.2007C34.7699 64.2007 32.1194 61.678 31.9373 58.5216C33.6457 59.1181 35.6555 59.466 38.0108 59.466C40.3661 59.466 42.376 59.1118 44.0844 58.5216C43.9022 61.6842 41.2517 64.2007 38.0108 64.2007ZM31.9184 62.7529C32.8292 63.9335 34.0728 64.8406 35.5173 65.3315L31.9184 67.0961V62.7529ZM40.5106 65.3377C41.9552 64.8469 43.1988 63.9397 44.1095 62.7591V67.1023L40.5106 65.3377ZM32.6847 29.6104C32.6156 29.9521 31.7489 30.0578 30.7439 30.1075C29.739 30.1448 28.8722 30.1075 28.7718 29.7719C28.6713 29.4488 29.5129 28.9145 30.6937 28.8648C31.8745 28.8151 32.7601 29.2811 32.6847 29.6104ZM43.3432 29.6104C43.2679 29.2811 44.1534 28.8151 45.3342 28.8648C46.515 28.9145 47.3567 29.4488 47.2562 29.7719C47.1557 30.1075 46.2889 30.1448 45.284 30.1075C44.2791 30.064 43.4186 29.9521 43.3432 29.6104ZM32.6847 35.5939C32.6847 36.4949 31.9498 37.2219 31.0391 37.2219C30.1284 37.2219 29.3936 36.4949 29.3936 35.5939C29.3936 34.693 30.1284 33.966 31.0391 33.966C31.9498 33.966 32.6847 34.693 32.6847 35.5939ZM46.6344 35.5939C46.6344 36.4949 45.8995 37.2219 44.9888 37.2219C44.0781 37.2219 43.3432 36.4949 43.3432 35.5939C43.3432 34.693 44.0781 33.966 44.9888 33.966C45.8995 33.966 46.6344 34.693 46.6344 35.5939ZM27.4591 62.1502L23.9167 66.4189L28.1311 70.3209C28.3949 70.5632 28.4577 70.9547 28.2819 71.2654L25.8323 75.6023C25.6879 75.8571 25.4241 76 25.1477 76C25.0158 76 24.8839 75.9689 24.7646 75.9006C24.3878 75.6893 24.2496 75.2171 24.4631 74.8443L26.6112 71.0355L22.3088 67.0526C22.0073 66.773 21.9759 66.307 22.2397 65.9901L26.2469 61.1623C26.5232 60.833 27.0194 60.7833 27.3523 61.0567C27.6852 61.33 27.7354 61.8209 27.4591 62.1502ZM47.8968 70.3147L52.1112 66.4126L48.5688 62.144C48.2925 61.8147 48.3427 61.3238 48.6756 61.0504C49.0085 60.777 49.5047 60.8268 49.781 61.1561L53.7882 65.9839C54.052 66.3008 54.0206 66.7668 53.7191 67.0464L49.4168 71.0292L51.5648 74.8381C51.7783 75.2109 51.6402 75.6831 51.2633 75.8944C51.144 75.9627 51.0121 75.9938 50.8802 75.9938C50.6038 75.9938 50.34 75.8509 50.1956 75.5961L47.7461 71.2591C47.5702 70.9485 47.633 70.557 47.8968 70.3147ZM36.7107 43.7274C36.5034 43.485 36.4846 43.2551 36.5976 43.1246C36.8426 42.8823 37.3576 42.9631 37.8412 42.9569C38.3186 42.9817 38.8399 42.9196 39.0723 43.1806C39.179 43.311 39.1476 43.5472 38.9341 43.7771C38.7205 44.007 38.306 44.212 37.8098 44.1996C37.3136 44.1871 36.9117 43.9635 36.7107 43.7274ZM40.027 48.5863C39.581 48.9529 38.7582 49.3008 37.8224 49.2573C36.8928 49.2263 36.1454 48.8597 35.6869 48.5366C35.2284 48.201 35.0337 47.8904 35.1216 47.7475C35.3101 47.4244 36.516 47.9525 37.8664 48.0146C39.2105 48.0954 40.3033 47.4554 40.5357 47.7475C40.6362 47.8779 40.4792 48.2197 40.0207 48.5863H40.027Z" fill="black"/>
</g>
</svg>
