<svg width="89" height="25" viewBox="0 0 89 25" fill="none" xmlns="http://www.w3.org/2000/svg">
<rect x="1" y="1" width="5.79955" height="23" rx="2.89977" fill="#F2AD4F"/>
<rect x="6.79955" y="1" width="5.79955" height="23" rx="2.89977" fill="#6EA5A4"/>
<rect x="12.5991" y="1" width="5.79955" height="23" rx="2.89978" fill="#E94C32"/>
<rect x="18.3986" y="1" width="5.79955" height="23" rx="2.89978" fill="#579D3D"/>
<rect width="5.77483" height="30.7672" rx="2.88741" transform="matrix(0.710134 0.704067 -0.710134 0.704067 21.399 -0.373734)" fill="white" fill-opacity="0.5"/>
<path d="M46.687 16.39V19H45.121C44.005 19 43.135 18.73 42.511 18.19C41.887 17.638 41.575 16.744 41.575 15.508V11.512H40.351V8.956H41.575V6.508H44.653V8.956H46.669V11.512H44.653V15.544C44.653 15.844 44.725 16.06 44.869 16.192C45.013 16.324 45.253 16.39 45.589 16.39H46.687ZM49.5895 13.96C49.5895 12.928 49.7815 12.022 50.1655 11.242C50.5615 10.462 51.0955 9.862 51.7675 9.442C52.4395 9.022 53.1895 8.812 54.0175 8.812C54.7255 8.812 55.3435 8.956 55.8715 9.244C56.4115 9.532 56.8255 9.91 57.1135 10.378V8.956H60.1915V19H57.1135V17.578C56.8135 18.046 56.3935 18.424 55.8535 18.712C55.3255 19 54.7075 19.144 53.9995 19.144C53.1835 19.144 52.4395 18.934 51.7675 18.514C51.0955 18.082 50.5615 17.476 50.1655 16.696C49.7815 15.904 49.5895 14.992 49.5895 13.96ZM57.1135 13.978C57.1135 13.21 56.8975 12.604 56.4655 12.16C56.0455 11.716 55.5295 11.494 54.9175 11.494C54.3055 11.494 53.7835 11.716 53.3515 12.16C52.9315 12.592 52.7215 13.192 52.7215 13.96C52.7215 14.728 52.9315 15.34 53.3515 15.796C53.7835 16.24 54.3055 16.462 54.9175 16.462C55.5295 16.462 56.0455 16.24 56.4655 15.796C56.8975 15.352 57.1135 14.746 57.1135 13.978ZM65.7663 7.912C65.2263 7.912 64.7823 7.756 64.4343 7.444C64.0983 7.12 63.9303 6.724 63.9303 6.256C63.9303 5.776 64.0983 5.38 64.4343 5.068C64.7823 4.744 65.2263 4.582 65.7663 4.582C66.2943 4.582 66.7263 4.744 67.0623 5.068C67.4103 5.38 67.5843 5.776 67.5843 6.256C67.5843 6.724 67.4103 7.12 67.0623 7.444C66.7263 7.756 66.2943 7.912 65.7663 7.912ZM67.2963 8.956V19H64.2183V8.956H67.2963ZM74.4049 5.68V19H71.3269V5.68H74.4049ZM88.6955 8.956L82.3955 23.77H79.0835L81.3875 18.658L77.3015 8.956H80.7395L83.0615 15.238L85.3655 8.956H88.6955Z" fill="#354053"/>
</svg>
